<svg xmlns="http://www.w3.org/2000/svg" width="63" height="55" viewBox="0 0 63 55"><g><g><g><g><path fill="none" stroke="#018edc" stroke-miterlimit="50" stroke-width="2" d="M5.91 47.606a5.83 5.83 0 0 1-4.64-5.719v-28.34c0-2.82 1.989-5.173 4.629-5.717"/></g><g><path fill="none" stroke="#018edc" stroke-miterlimit="50" stroke-width="2" d="M57.28 7.83a5.829 5.829 0 0 1 4.64 5.717V41.89a5.83 5.83 0 0 1-4.628 5.717"/></g><g><path fill="none" stroke="#018edc" stroke-miterlimit="50" stroke-width="2" d="M49.695 53.564H13.49c-4.185 0-7.579-3.415-7.579-7.628V9.496c0-4.213 3.394-7.626 7.579-7.626h36.206c4.186 0 7.58 3.413 7.58 7.626v36.44c0 4.213-3.394 7.628-7.58 7.628z"/></g><g><path fill="none" stroke="#018edc" stroke-miterlimit="50" stroke-width="2" d="M26.563 35.946c0 1.417-1.646 2.565-3.681 2.565-2.034 0-3.682-1.148-3.682-2.565 0-1.418 1.648-2.566 3.682-2.566 2.035 0 3.681 1.148 3.681 2.566z"/></g><g><path fill="none" stroke="#018edc" stroke-miterlimit="50" stroke-width="2" d="M39.963 32.526c0 1.415-1.648 2.565-3.681 2.565-2.034 0-3.682-1.15-3.682-2.565 0-1.418 1.648-2.566 3.682-2.566 2.033 0 3.681 1.148 3.681 2.566z"/></g><g><path fill="none" stroke="#018edc" stroke-miterlimit="50" stroke-width="2" d="M39.96 32.521v0V15.88v0l-13.4 3.813v16.25"/></g></g></g></g></svg>