<svg xmlns="http://www.w3.org/2000/svg" width="16" height="14" viewBox="0 0 16 14"><g><g><path fill="#ff004b" d="M10.682 1.48l4.837 7.703a3.14 3.14 0 0 1-1.006 4.338 3.174 3.174 0 0 1-1.677.479H3.163A3.156 3.156 0 0 1 0 10.852c0-.59.167-1.169.48-1.67L5.318 1.48a3.172 3.172 0 0 1 5.365 0z"/></g><g><path fill="#fff" d="M8.843 11.185c.2-.21.3-.465.3-.765 0-.307-.1-.56-.3-.761a1.041 1.041 0 0 0-.772-.302c-.313 0-.57.1-.77.302-.2.2-.301.454-.301.76 0 .3.1.556.3.766.2.21.458.315.771.315.314 0 .571-.105.772-.315zm-1.486-2.9h1.429L9.143 4H7z"/></g></g></svg>