<svg xmlns="http://www.w3.org/2000/svg" width="45" height="51" viewBox="0 0 45 51"><g><g><g><g><g><path fill="none" stroke="#018edc" stroke-miterlimit="50" stroke-width="2" d="M16 44.5c0 3.04-3.354 5.5-7.5 5.5C4.358 50 1 47.54 1 44.5S4.358 39 8.5 39c4.146 0 7.5 2.46 7.5 5.5z"/></g><g><path fill="none" stroke="#018edc" stroke-miterlimit="50" stroke-width="2" d="M44 37.5c0 3.035-3.358 5.5-7.5 5.5-4.142 0-7.5-2.465-7.5-5.5 0-3.04 3.358-5.5 7.5-5.5 4.142 0 7.5 2.46 7.5 5.5z"/></g><g><path fill="none" stroke="#018edc" stroke-miterlimit="50" stroke-width="2" d="M44 36.837v0V2v0L16 9.982V44"/></g></g></g></g></g></svg>