<svg xmlns="http://www.w3.org/2000/svg" width="16" height="14" viewBox="0 0 16 14"><g><g><path fill="#dc9801" d="M7 4h2.143l-.357 4.286H7.357zm1.071 7.5c-.313 0-.57-.105-.77-.315-.2-.21-.301-.465-.301-.765 0-.307.1-.56.3-.761.2-.201.458-.302.771-.302.314 0 .571.1.772.302.2.2.3.454.3.76 0 .3-.1.556-.3.766-.2.21-.458.315-.772.315zM9.676.479A3.172 3.172 0 0 0 5.317 1.48L.481 9.183C.167 9.683 0 10.26 0 10.852A3.156 3.156 0 0 0 3.163 14h9.673c.593 0 1.174-.166 1.677-.479a3.14 3.14 0 0 0 1.006-4.338L10.682 1.48A3.156 3.156 0 0 0 9.676.48z"/></g></g></svg>