<svg xmlns="http://www.w3.org/2000/svg" width="16" height="14" viewBox="0 0 16 14"><g><g><g><path fill="#018edc" d="M16 1.35a1.35 1.35 0 1 1-2.7 0 1.35 1.35 0 0 1 2.7 0"/></g><g><path fill="#018edc" d="M9.35 1.35a1.35 1.35 0 1 1-2.7 0 1.35 1.35 0 0 1 2.7 0"/></g><g><path fill="#018edc" d="M2.7 1.35a1.35 1.35 0 1 1-2.7 0 1.35 1.35 0 0 1 2.7 0"/></g><g><path fill="#018edc" d="M16 6.75a1.35 1.35 0 1 1-2.7 0 1.35 1.35 0 0 1 2.7 0"/></g><g><path fill="#018edc" d="M9.35 6.75a1.35 1.35 0 1 1-2.7 0 1.35 1.35 0 0 1 2.7 0"/></g><g><path fill="#018edc" d="M2.7 6.75a1.35 1.35 0 1 1-2.7 0 1.35 1.35 0 0 1 2.7 0"/></g><g><path fill="#018edc" d="M9.35 12.15a1.35 1.35 0 1 1-2.7 0 1.35 1.35 0 0 1 2.7 0"/></g></g></g></svg>