<svg xmlns="http://www.w3.org/2000/svg" width="174" height="35" viewBox="0 0 174 35"><defs><clipPath id="fb8ja"><path d="M4.18 5.07h21.612v20.884H4.18z"/></clipPath><clipPath id="fb8jb"><path d="M0 17.07h4.778v4.778H0z"/></clipPath></defs><g><g><g><g><path fill="#fff" d="M161.135 14.423h-2.637V0h3.846l3.905 10.519L170.154 0H174v14.423h-2.637V3.856l-3.836 10.078h-2.556l-3.836-10.077zm-18.515-4.065c0 1.686.936 2.468 2.994 2.468 1.098 0 1.895-.202 2.405-.586.486-.366.74-.982.74-1.882V0h2.584v10.319c0 1.611-.488 2.814-1.487 3.575-.976.743-2.38 1.106-4.199 1.106-1.82 0-3.218-.363-4.18-1.109-.983-.76-1.463-1.962-1.463-3.572V0h2.606zM129.878 0h2.385v14.423h-2.385zm-7.155 12.2v2.223h-8.944V0h2.555v12.2zm-16.099 0v2.223h-8.943V0h2.554v12.2zm-16.098.02v2.203H80.39V0h10.136v2.204h-7.49V6.01h6.183v2.186h-6.182v4.022zM63.099 2.223V0h11.328v2.224h-4.389v12.2H67.53v-12.2zm-10.928.008c-1.835 0-2.638.58-2.638 1.798 0 .7.18 1.134.511 1.35.414.27 1.336.568 2.734.866 1.52.326 2.613.753 3.287 1.305.722.59 1.071 1.53 1.071 2.784 0 3.063-1.732 4.665-5.027 4.665-1.03 0-2.313-.114-3.844-.341l-1.194-.16.28-2.142.46.058c1.858.236 3.264.353 4.216.353 1.79 0 2.597-.727 2.597-2.314 0-.611-.168-1.011-.488-1.243-.378-.273-1.157-.528-2.33-.744-1.676-.343-2.88-.792-3.621-1.367C47.387 6.484 47 5.481 47 4.13 47 1.408 48.759 0 52.068 0c1.028 0 2.255.101 3.682.303l1.141.16-.242 2.157-.463-.054c-1.9-.223-3.24-.334-4.015-.334z"/></g><g><g><path fill="#fff" d="M47 34.638V26.2h3.158l1.612 6.154 1.612-6.154h3.158v8.438h-1.854V28.11h-.202l-1.787 6.154h-1.854l-1.787-6.154h-.202v6.527z"/></g><g><path fill="#fff" d="M82.137 31.892c0 1.031.511 1.547 1.532 1.547 1.022 0 1.532-.516 1.532-1.547V26h1.748v5.853c0 1.083-.273 1.879-.817 2.386-.544.507-1.365.761-2.463.761-1.097 0-1.918-.254-2.462-.76-.545-.508-.817-1.304-.817-2.387V26h1.747z"/></g><g><path fill="#fff" d="M114.823 27.534c-1.014 0-1.521.307-1.521.92 0 .273.125.482.377.627.25.145.84.354 1.765.626.925.273 1.574.582 1.946.927.373.345.559.876.559 1.592 0 .912-.303 1.602-.907 2.07-.605.47-1.396.704-2.373.704-.725 0-1.614-.102-2.665-.307l-.502-.09.195-1.367c1.247.153 2.2.23 2.86.23.987 0 1.48-.375 1.48-1.125a.73.73 0 0 0-.342-.64c-.228-.153-.681-.319-1.36-.498-1.08-.281-1.84-.616-2.282-1.003-.442-.388-.663-.927-.663-1.618 0-.869.288-1.517.865-1.943.577-.426 1.368-.639 2.372-.639.689 0 1.563.085 2.624.256l.502.09-.153 1.393c-1.312-.137-2.238-.205-2.777-.205z"/></g><g><path fill="#fff" d="M141.21 34.7v-8.5h2v8.5z"/></g><g><path fill="#fff" d="M173.99 34.706c-.919.196-1.746.294-2.482.294-.736 0-1.325-.09-1.766-.268a2.17 2.17 0 0 1-1.04-.857 3.772 3.772 0 0 1-.52-1.38c-.094-.53-.142-1.194-.142-1.995 0-1.679.24-2.849.721-3.51.48-.66 1.366-.99 2.656-.99.745 0 1.607.115 2.585.345l-.052 1.406c-.857-.127-1.57-.191-2.136-.191-.568 0-.972.074-1.215.223-.242.15-.422.433-.539.85-.117.418-.175 1.13-.175 2.135 0 1.006.119 1.703.357 2.09.238.388.714.582 1.429.582.714 0 1.474-.06 2.28-.179z"/></g></g></g><g><g><g/><g clip-path="url(#fb8ja)"><path fill="#ff1157" d="M25.792 5.07l-5.127 20.884L9.203 21.1 4.18 10.024zm-7.02 9.863c.88-.85.88-2.227 0-3.077a2.316 2.316 0 0 0-3.191 0 2.122 2.122 0 0 0 0 3.077c.881.85 2.31.85 3.19 0z"/></g></g><g><path fill="#ff1157" d="M11.83 26.372L9.371 28.83a1.272 1.272 0 0 0 1.798 1.798l2.457-2.458a1.27 1.27 0 1 0-1.798-1.798"/></g><g><path fill="#ff1157" d="M4.83 24.372L2.371 26.83a1.272 1.272 0 0 0 1.798 1.798l2.457-2.458a1.27 1.27 0 1 0-1.798-1.798"/></g><g><g/><g clip-path="url(#fb8jb)"><path fill="#ff1157" d="M2.704 17.426L.356 19.774a1.215 1.215 0 1 0 1.718 1.718l2.348-2.348a1.215 1.215 0 1 0-1.718-1.718"/></g></g></g></g></g></svg>