<svg xmlns="http://www.w3.org/2000/svg" width="60" height="70" viewBox="0 0 60 70"><g><g><g><path fill="none" stroke="#4169b0" stroke-miterlimit="50" stroke-width="2" d="M1 5a4 4 0 0 1 4-4h50a4 4 0 0 1 4 4v60a4 4 0 0 1-4 4H5a4 4 0 0 1-4-4z"/></g><g><path fill="none" stroke="#4169b0" stroke-miterlimit="50" stroke-width="2" d="M31 16.5h16.5"/></g><g><path fill="none" stroke="#4169b0" stroke-miterlimit="50" stroke-width="2" d="M12 15.345v0L15.785 19v0L22 13v0"/></g><g><path fill="none" stroke="#4169b0" stroke-miterlimit="50" stroke-width="2" d="M31 34.5h16.5"/></g><g><path fill="none" stroke="#4169b0" stroke-miterlimit="50" stroke-width="2" d="M31 52.5h16.5"/></g><g><path fill="none" stroke="#4169b0" stroke-miterlimit="50" stroke-width="2" d="M17 57a4 4 0 1 0 0-8 4 4 0 0 0 0 8z"/></g><g><path fill="none" stroke="#4169b0" stroke-miterlimit="50" stroke-width="2" d="M17 39a4 4 0 1 0 0-8 4 4 0 0 0 0 8z"/></g></g></g></svg>