<svg xmlns="http://www.w3.org/2000/svg" width="23" height="23" viewBox="0 0 23 23"><g><g><g><path fill="none" stroke="#018edc" stroke-linecap="round" stroke-miterlimit="50" stroke-width="2" d="M1 4a3 3 0 0 1 3-3h15a3 3 0 0 1 3 3v15a3 3 0 0 1-3 3H4a3 3 0 0 1-3-3z"/></g><g><path fill="#018edc" d="M16.333 7L5 19.25l2.853 1.352 10.852 1.072A3 3 0 0 0 22 18.69v-6.592z"/></g><g><path fill="#018edc" d="M6.523 11l-4.16 4.645L1 16.66V21a1 1 0 0 0 1 1h4.523L16 20.625z"/></g><g><path fill="#018edc" d="M9 7a2 2 0 1 1-4 0 2 2 0 0 1 4 0"/></g></g></g></svg>