<svg xmlns="http://www.w3.org/2000/svg" width="13" height="13" viewBox="0 0 13 13"><g><g><g><path fill="none" stroke="#018edc" stroke-linecap="round" stroke-miterlimit="50" stroke-width="2" d="M1 4a3 3 0 0 1 3-3h5a3 3 0 0 1 3 3v5a3 3 0 0 1-3 3H4a3 3 0 0 1-3-3z"/></g><g><path fill="#018edc" d="M9 5l-6 5.717 1.51.63 5.316.464A2 2 0 0 0 12 9.818v-2.44z"/></g><g><path fill="#018edc" d="M4.314 6L1.818 8.534 1 9.087V11a1 1 0 0 0 1 1h2.314L10 11.25z"/></g><g><path fill="#018edc" d="M6 4.5a1 1 0 1 1-2 0 1 1 0 0 1 2 0"/></g></g></g></svg>