<svg xmlns="http://www.w3.org/2000/svg" width="17" height="17" viewBox="0 0 17 17"><g><g><g><path fill="none" stroke="#018edc" stroke-miterlimit="50" d="M11.222 1c-2.64 0-4.778 2.121-4.778 4.737 0 .631.126 1.232.353 1.784L1 13.265V16h2.757v0l.007-.007v0-2.142 0h2.161v0l.007-.006v0-2.142 0h2.161v0l1.523-1.509c.503.178 1.041.28 1.606.28 2.64 0 4.778-2.12 4.778-4.737C16 3.12 13.861 1 11.222 1z"/></g><g><path fill="#018edc" d="M12.5 5.55a1.35 1.35 0 1 1-2.7 0 1.35 1.35 0 0 1 2.7 0"/></g></g></g></svg>