<svg xmlns="http://www.w3.org/2000/svg" width="19" height="16" viewBox="0 0 19 16"><g><g><g><path fill="none" stroke="#018edc" stroke-miterlimit="50" d="M.26 15.633L18.593 1.33"/></g><g><path fill="#018edc" d="M12.56 6.555A3.675 3.675 0 0 0 9.428 4.79 3.688 3.688 0 0 0 5.74 8.477c0 1.004.404 1.911 1.055 2.576z"/></g><g><path fill="#018edc" d="M7.46 11.593c.57.361 1.24.577 1.963.577a3.686 3.686 0 0 0 3.687-3.687c0-.401-.08-.78-.198-1.143z"/></g><g><path fill="none" stroke="#018edc" stroke-miterlimit="50" d="M5.95 12.787a9.887 9.887 0 0 0 3.476.627 9.91 9.91 0 0 0 8.585-4.956 9.999 9.999 0 0 0-2.67-2.998"/></g><g><path fill="none" stroke="#018edc" stroke-miterlimit="50" d="M14.23 4.742A9.855 9.855 0 0 0 9.424 3.5 9.906 9.906 0 0 0 .84 8.457 9.965 9.965 0 0 0 4.67 12.2"/></g><g><path fill="none" stroke="#fff" stroke-miterlimit="50" d="M9.423 6.57A1.913 1.913 0 0 0 7.51 8.483"/></g></g></g></svg>